<mxfile modified="2020-12-24T05:53:52.048Z" host="app.diagrams.net" agent="5.0 (Macintosh; Intel Mac OS X 10_15_4) AppleWebKit/537.36 (KHTML, like Gecko) Chrome/87.0.4280.88 Safari/537.36" etag="cpBJNdGMGpq_nx1TIjkw" version="14.1.2" type="github">
  <diagram id="dV8X5NK_n6pwrdnQcXCx" name="Page-1">
    <mxGraphModel dx="1298" dy="760" grid="1" gridSize="10" guides="1" tooltips="1" connect="1" arrows="1" fold="1" page="1" pageScale="1" pageWidth="1169" pageHeight="827" math="0" shadow="0">
      <root>
        <mxCell id="0" />
        <mxCell id="1" parent="0" />
        <mxCell id="7PiWUJBz4IiZLpDk-yet-1" value="&lt;font&gt;&lt;font style=&quot;font-size: 24px&quot;&gt;EI Bot main project&lt;br&gt;&lt;br&gt;&lt;br&gt;&lt;br&gt;&lt;br&gt;&lt;br&gt;&lt;br&gt;&lt;br&gt;&lt;br&gt;&lt;br&gt;&lt;br&gt;&lt;br&gt;&lt;br&gt;&lt;br&gt;&lt;br&gt;&lt;br&gt;&lt;/font&gt;&lt;br&gt;&lt;/font&gt;" style="rounded=0;whiteSpace=wrap;html=1;fillColor=none;" parent="1" vertex="1">
          <mxGeometry x="25" y="164" width="870" height="470" as="geometry" />
        </mxCell>
        <mxCell id="7PiWUJBz4IiZLpDk-yet-3" value="&lt;font style=&quot;font-size: 18px&quot;&gt;Front-end&lt;br&gt;&lt;br&gt;&lt;br&gt;&lt;br&gt;&lt;br&gt;&lt;br&gt;&lt;br&gt;&lt;br&gt;&lt;br&gt;&lt;br&gt;&lt;br&gt;&lt;br&gt;&lt;/font&gt;&lt;br&gt;" style="rounded=1;whiteSpace=wrap;html=1;fillColor=none;" parent="1" vertex="1">
          <mxGeometry x="65" y="224" width="120" height="270" as="geometry" />
        </mxCell>
        <mxCell id="xO52WqcfEWfslr_U7u06-2" value="&lt;font style=&quot;font-size: 18px&quot;&gt;Chatroom&lt;br&gt;Database&lt;br&gt;(mongoDB)&lt;/font&gt;&lt;br&gt;" style="shape=cylinder;whiteSpace=wrap;html=1;boundedLbl=1;backgroundOutline=1;fillColor=#dae8fc;strokeColor=#6c8ebf;" parent="1" vertex="1">
          <mxGeometry x="785" y="464" width="100" height="150" as="geometry" />
        </mxCell>
        <mxCell id="7PiWUJBz4IiZLpDk-yet-4" value="&lt;font style=&quot;font-size: 18px&quot;&gt;Back-end&lt;br&gt;&lt;br&gt;&lt;br&gt;&lt;br&gt;&lt;br&gt;&lt;br&gt;&lt;br&gt;&lt;br&gt;&lt;br&gt;&lt;br&gt;&lt;br&gt;&lt;br&gt;&lt;/font&gt;&lt;br&gt;" style="rounded=1;whiteSpace=wrap;html=1;fillColor=none;" parent="1" vertex="1">
          <mxGeometry x="285" y="224" width="480" height="270" as="geometry" />
        </mxCell>
        <mxCell id="7PiWUJBz4IiZLpDk-yet-7" value="Project / User Management" style="rounded=1;whiteSpace=wrap;html=1;fillColor=#d5e8d4;dashed=1;strokeColor=#82b366;fontSize=18;" parent="1" vertex="1">
          <mxGeometry x="945" y="149" width="150" height="70" as="geometry" />
        </mxCell>
        <mxCell id="7PiWUJBz4IiZLpDk-yet-9" value="&lt;font style=&quot;font-size: 18px&quot;&gt;Websocket&lt;/font&gt;&lt;br&gt;" style="endArrow=classic;startArrow=classic;html=1;entryX=0;entryY=0.5;entryDx=0;entryDy=0;exitX=1;exitY=0.5;exitDx=0;exitDy=0;" parent="1" source="7PiWUJBz4IiZLpDk-yet-35" target="7PiWUJBz4IiZLpDk-yet-25" edge="1">
          <mxGeometry width="50" height="50" relative="1" as="geometry">
            <mxPoint x="185" y="427" as="sourcePoint" />
            <mxPoint x="245" y="634" as="targetPoint" />
          </mxGeometry>
        </mxCell>
        <mxCell id="7PiWUJBz4IiZLpDk-yet-10" value="&lt;font style=&quot;font-size: 18px&quot;&gt;Http&lt;/font&gt;&lt;br&gt;" style="endArrow=classic;startArrow=classic;html=1;entryX=0;entryY=0.25;entryDx=0;entryDy=0;exitX=1;exitY=0.25;exitDx=0;exitDy=0;" parent="1" source="7PiWUJBz4IiZLpDk-yet-3" target="7PiWUJBz4IiZLpDk-yet-4" edge="1">
          <mxGeometry width="50" height="50" relative="1" as="geometry">
            <mxPoint x="185" y="384" as="sourcePoint" />
            <mxPoint x="365" y="384" as="targetPoint" />
          </mxGeometry>
        </mxCell>
        <mxCell id="7PiWUJBz4IiZLpDk-yet-12" value="" style="endArrow=classic;startArrow=classic;html=1;entryX=0;entryY=0.75;entryDx=0;entryDy=0;exitX=1;exitY=0.25;exitDx=0;exitDy=0;" parent="1" source="7PiWUJBz4IiZLpDk-yet-4" target="7PiWUJBz4IiZLpDk-yet-7" edge="1">
          <mxGeometry width="50" height="50" relative="1" as="geometry">
            <mxPoint x="425" y="414" as="sourcePoint" />
            <mxPoint x="465" y="374" as="targetPoint" />
          </mxGeometry>
        </mxCell>
        <mxCell id="7PiWUJBz4IiZLpDk-yet-13" value="Scheduler /&lt;br&gt;Task Runner&lt;br style=&quot;font-size: 18px&quot;&gt;" style="rounded=1;whiteSpace=wrap;html=1;fillColor=#d5e8d4;dashed=1;strokeColor=#82b366;fontSize=18;" parent="1" vertex="1">
          <mxGeometry x="955" y="259" width="150" height="70" as="geometry" />
        </mxCell>
        <mxCell id="7PiWUJBz4IiZLpDk-yet-14" value="" style="endArrow=classic;startArrow=classic;html=1;entryX=0;entryY=0.5;entryDx=0;entryDy=0;exitX=1;exitY=0.25;exitDx=0;exitDy=0;" parent="1" source="7PiWUJBz4IiZLpDk-yet-4" target="7PiWUJBz4IiZLpDk-yet-13" edge="1">
          <mxGeometry width="50" height="50" relative="1" as="geometry">
            <mxPoint x="475" y="459" as="sourcePoint" />
            <mxPoint x="632" y="217" as="targetPoint" />
          </mxGeometry>
        </mxCell>
        <mxCell id="7PiWUJBz4IiZLpDk-yet-15" value="Chatbot Dispatcher" style="rounded=1;whiteSpace=wrap;html=1;fillColor=#60a917;dashed=1;strokeColor=#2D7600;fontSize=18;fontColor=#ffffff;" parent="1" vertex="1">
          <mxGeometry x="980" y="590" width="150" height="70" as="geometry" />
        </mxCell>
        <mxCell id="7PiWUJBz4IiZLpDk-yet-20" value="&lt;font style=&quot;font-size: 18px&quot;&gt;WPLM&lt;/font&gt;" style="shape=cube;whiteSpace=wrap;html=1;boundedLbl=1;backgroundOutline=1;darkOpacity=0.05;darkOpacity2=0.1;fillColor=#ffe6cc;size=7;strokeColor=#d79b00;" parent="1" vertex="1">
          <mxGeometry x="207" y="436" width="64" height="37" as="geometry" />
        </mxCell>
        <mxCell id="7PiWUJBz4IiZLpDk-yet-21" value="&lt;span style=&quot;font-size: 18px&quot;&gt;User data&lt;/span&gt;&lt;br&gt;" style="shape=cube;whiteSpace=wrap;html=1;boundedLbl=1;backgroundOutline=1;darkOpacity=0.05;darkOpacity2=0.1;fillColor=#e1d5e7;size=7;strokeColor=#9673a6;" parent="1" vertex="1">
          <mxGeometry x="195" y="229" width="80" height="50" as="geometry" />
        </mxCell>
        <mxCell id="7PiWUJBz4IiZLpDk-yet-22" value="File Management System&lt;br style=&quot;font-size: 18px&quot;&gt;" style="rounded=1;whiteSpace=wrap;html=1;fillColor=#d5e8d4;dashed=1;strokeColor=#82b366;fontSize=18;" parent="1" vertex="1">
          <mxGeometry x="955" y="339" width="150" height="70" as="geometry" />
        </mxCell>
        <mxCell id="7PiWUJBz4IiZLpDk-yet-23" value="" style="endArrow=classic;startArrow=classic;html=1;entryX=0;entryY=0.5;entryDx=0;entryDy=0;exitX=1;exitY=0.25;exitDx=0;exitDy=0;" parent="1" source="7PiWUJBz4IiZLpDk-yet-4" target="7PiWUJBz4IiZLpDk-yet-22" edge="1">
          <mxGeometry width="50" height="50" relative="1" as="geometry">
            <mxPoint x="775" y="392" as="sourcePoint" />
            <mxPoint x="965" y="304" as="targetPoint" />
          </mxGeometry>
        </mxCell>
        <mxCell id="7PiWUJBz4IiZLpDk-yet-24" value="" style="endArrow=classic;html=1;entryX=0;entryY=0.5;entryDx=0;entryDy=0;exitX=1;exitY=0;exitDx=0;exitDy=0;" parent="1" source="7PiWUJBz4IiZLpDk-yet-58" target="7PiWUJBz4IiZLpDk-yet-15" edge="1">
          <mxGeometry width="50" height="50" relative="1" as="geometry">
            <mxPoint x="595" y="744" as="sourcePoint" />
            <mxPoint x="645" y="694" as="targetPoint" />
          </mxGeometry>
        </mxCell>
        <mxCell id="7PiWUJBz4IiZLpDk-yet-25" value="Chatroom&amp;nbsp;Manager / Wessage Broadcaster" style="ellipse;whiteSpace=wrap;html=1;fillColor=none;fontSize=18;" parent="1" vertex="1">
          <mxGeometry x="390" y="300" width="195" height="129" as="geometry" />
        </mxCell>
        <mxCell id="7PiWUJBz4IiZLpDk-yet-29" value="Message Proxy&lt;br style=&quot;font-size: 18px&quot;&gt;&lt;br style=&quot;font-size: 18px&quot;&gt;&lt;br style=&quot;font-size: 18px&quot;&gt;&lt;br style=&quot;font-size: 18px&quot;&gt;&lt;br style=&quot;font-size: 18px&quot;&gt;&lt;br style=&quot;font-size: 18px&quot;&gt;&lt;br style=&quot;font-size: 18px&quot;&gt;" style="rounded=1;whiteSpace=wrap;html=1;fillColor=#d5e8d4;dashed=1;strokeColor=#82b366;fontSize=18;" parent="1" vertex="1">
          <mxGeometry x="467" y="659" width="200" height="150" as="geometry" />
        </mxCell>
        <mxCell id="7PiWUJBz4IiZLpDk-yet-30" value="&lt;font style=&quot;font-size: 18px&quot;&gt;Http (webhook)&lt;/font&gt;&lt;br&gt;" style="endArrow=classic;startArrow=classic;html=1;entryX=0.5;entryY=1;entryDx=0;entryDy=0;exitX=0.5;exitY=0;exitDx=0;exitDy=0;" parent="1" source="7PiWUJBz4IiZLpDk-yet-58" target="7PiWUJBz4IiZLpDk-yet-25" edge="1">
          <mxGeometry width="50" height="50" relative="1" as="geometry">
            <mxPoint x="195" y="392" as="sourcePoint" />
            <mxPoint x="295" y="392" as="targetPoint" />
          </mxGeometry>
        </mxCell>
        <mxCell id="7PiWUJBz4IiZLpDk-yet-31" value="" style="endArrow=classic;startArrow=classic;html=1;entryX=0;entryY=0.5;entryDx=0;entryDy=0;exitX=1;exitY=1;exitDx=0;exitDy=0;" parent="1" source="7PiWUJBz4IiZLpDk-yet-25" target="xO52WqcfEWfslr_U7u06-2" edge="1">
          <mxGeometry width="50" height="50" relative="1" as="geometry">
            <mxPoint x="195" y="844" as="sourcePoint" />
            <mxPoint x="245" y="794" as="targetPoint" />
          </mxGeometry>
        </mxCell>
        <mxCell id="7PiWUJBz4IiZLpDk-yet-33" value="NLP /&lt;br&gt;Dialog Engine / Command Engine" style="rounded=1;whiteSpace=wrap;html=1;fillColor=#60a917;dashed=1;strokeColor=#2D7600;fontSize=18;fontColor=#ffffff;" parent="1" vertex="1">
          <mxGeometry x="980" y="720" width="150" height="70" as="geometry" />
        </mxCell>
        <mxCell id="7PiWUJBz4IiZLpDk-yet-35" value="&lt;font style=&quot;font-size: 18px&quot;&gt;WPLM Renderer&lt;/font&gt;&lt;br&gt;" style="shape=parallelogram;perimeter=parallelogramPerimeter;whiteSpace=wrap;html=1;fillColor=none;" parent="1" vertex="1">
          <mxGeometry x="65" y="423" width="113" height="50" as="geometry" />
        </mxCell>
        <mxCell id="7PiWUJBz4IiZLpDk-yet-36" value="WPLM&lt;br style=&quot;font-size: 18px;&quot;&gt;(WPL Message)" style="shape=cube;whiteSpace=wrap;html=1;boundedLbl=1;backgroundOutline=1;darkOpacity=0.05;darkOpacity2=0.1;fillColor=none;fontSize=18;" parent="1" vertex="1">
          <mxGeometry x="120" y="34" width="175" height="80" as="geometry" />
        </mxCell>
        <mxCell id="7PiWUJBz4IiZLpDk-yet-37" value="" style="shape=link;html=1;fontSize=18;" parent="1" edge="1">
          <mxGeometry width="50" height="50" relative="1" as="geometry">
            <mxPoint x="315" y="84" as="sourcePoint" />
            <mxPoint x="335" y="84" as="targetPoint" />
          </mxGeometry>
        </mxCell>
        <mxCell id="7PiWUJBz4IiZLpDk-yet-39" value="" style="rounded=1;whiteSpace=wrap;html=1;fillColor=none;" parent="1" vertex="1">
          <mxGeometry x="355" y="14" width="435" height="130" as="geometry" />
        </mxCell>
        <mxCell id="7PiWUJBz4IiZLpDk-yet-41" value="WPL data" style="rounded=1;whiteSpace=wrap;html=1;fillColor=none;fontSize=18;" parent="1" vertex="1">
          <mxGeometry x="370" y="24" width="100" height="30" as="geometry" />
        </mxCell>
        <mxCell id="7PiWUJBz4IiZLpDk-yet-42" value="From / To" style="rounded=1;whiteSpace=wrap;html=1;fillColor=none;fontSize=18;" parent="1" vertex="1">
          <mxGeometry x="500" y="24" width="110" height="30" as="geometry" />
        </mxCell>
        <mxCell id="7PiWUJBz4IiZLpDk-yet-43" value="User Info (optional)" style="rounded=1;whiteSpace=wrap;html=1;fillColor=none;dashed=1;fontSize=18;" parent="1" vertex="1">
          <mxGeometry x="370" y="69" width="90" height="51" as="geometry" />
        </mxCell>
        <mxCell id="7PiWUJBz4IiZLpDk-yet-44" value="Project Info (optional)" style="rounded=1;whiteSpace=wrap;html=1;fillColor=none;dashed=1;fontSize=18;" parent="1" vertex="1">
          <mxGeometry x="600" y="69" width="130" height="51" as="geometry" />
        </mxCell>
        <mxCell id="7PiWUJBz4IiZLpDk-yet-45" value="Platform Info (optional)" style="rounded=1;whiteSpace=wrap;html=1;fillColor=none;dashed=1;fontSize=18;" parent="1" vertex="1">
          <mxGeometry x="467" y="69" width="115" height="51" as="geometry" />
        </mxCell>
        <mxCell id="7PiWUJBz4IiZLpDk-yet-46" value="Line" style="ellipse;shape=cloud;whiteSpace=wrap;html=1;rounded=1;dashed=1;fontSize=18;" parent="1" vertex="1">
          <mxGeometry x="740" y="764" width="100" height="60" as="geometry" />
        </mxCell>
        <mxCell id="7PiWUJBz4IiZLpDk-yet-47" value="Facebook" style="ellipse;shape=cloud;whiteSpace=wrap;html=1;rounded=1;dashed=1;fontSize=18;" parent="1" vertex="1">
          <mxGeometry x="740" y="704" width="160" height="60" as="geometry" />
        </mxCell>
        <mxCell id="7PiWUJBz4IiZLpDk-yet-48" value="Wechat" style="ellipse;shape=cloud;whiteSpace=wrap;html=1;rounded=1;dashed=1;fontSize=18;" parent="1" vertex="1">
          <mxGeometry x="785" y="644" width="135" height="60" as="geometry" />
        </mxCell>
        <mxCell id="7PiWUJBz4IiZLpDk-yet-49" value="" style="endArrow=classic;startArrow=classic;html=1;entryX=0.75;entryY=1;entryDx=0;entryDy=0;exitX=0.13;exitY=0.77;exitDx=0;exitDy=0;exitPerimeter=0;" parent="1" source="7PiWUJBz4IiZLpDk-yet-46" target="7PiWUJBz4IiZLpDk-yet-58" edge="1">
          <mxGeometry width="50" height="50" relative="1" as="geometry">
            <mxPoint x="385" y="944" as="sourcePoint" />
            <mxPoint x="435" y="894" as="targetPoint" />
          </mxGeometry>
        </mxCell>
        <mxCell id="7PiWUJBz4IiZLpDk-yet-50" value="" style="endArrow=classic;startArrow=classic;html=1;entryX=1;entryY=0.75;entryDx=0;entryDy=0;exitX=0.13;exitY=0.77;exitDx=0;exitDy=0;exitPerimeter=0;" parent="1" source="7PiWUJBz4IiZLpDk-yet-47" target="7PiWUJBz4IiZLpDk-yet-58" edge="1">
          <mxGeometry width="50" height="50" relative="1" as="geometry">
            <mxPoint x="498" y="966" as="sourcePoint" />
            <mxPoint x="560" y="874" as="targetPoint" />
          </mxGeometry>
        </mxCell>
        <mxCell id="7PiWUJBz4IiZLpDk-yet-51" value="" style="endArrow=classic;startArrow=classic;html=1;entryX=1;entryY=0.25;entryDx=0;entryDy=0;exitX=0.13;exitY=0.77;exitDx=0;exitDy=0;exitPerimeter=0;" parent="1" source="7PiWUJBz4IiZLpDk-yet-48" target="7PiWUJBz4IiZLpDk-yet-58" edge="1">
          <mxGeometry width="50" height="50" relative="1" as="geometry">
            <mxPoint x="750" y="670" as="sourcePoint" />
            <mxPoint x="672" y="878" as="targetPoint" />
          </mxGeometry>
        </mxCell>
        <mxCell id="7PiWUJBz4IiZLpDk-yet-54" value="&lt;font style=&quot;font-size: 18px&quot;&gt;Room Data&lt;/font&gt;&lt;br&gt;" style="shape=cube;whiteSpace=wrap;html=1;boundedLbl=1;backgroundOutline=1;darkOpacity=0.05;darkOpacity2=0.1;fillColor=#e1d5e7;size=7;strokeColor=#9673a6;" parent="1" vertex="1">
          <mxGeometry x="658" y="504" width="107" height="30" as="geometry" />
        </mxCell>
        <mxCell id="7PiWUJBz4IiZLpDk-yet-55" value="" style="endArrow=classic;startArrow=classic;html=1;entryX=0.5;entryY=0;entryDx=0;entryDy=0;exitX=0.5;exitY=1;exitDx=0;exitDy=0;" parent="1" source="7PiWUJBz4IiZLpDk-yet-15" target="7PiWUJBz4IiZLpDk-yet-33" edge="1">
          <mxGeometry width="50" height="50" relative="1" as="geometry">
            <mxPoint x="1165" y="494" as="sourcePoint" />
            <mxPoint x="1215" y="444" as="targetPoint" />
          </mxGeometry>
        </mxCell>
        <mxCell id="7PiWUJBz4IiZLpDk-yet-56" value="" style="endArrow=classic;html=1;entryX=0.5;entryY=1;entryDx=0;entryDy=0;" parent="1" source="7PiWUJBz4IiZLpDk-yet-35" target="7PiWUJBz4IiZLpDk-yet-57" edge="1">
          <mxGeometry width="50" height="50" relative="1" as="geometry">
            <mxPoint x="85" y="604" as="sourcePoint" />
            <mxPoint x="126" y="394" as="targetPoint" />
          </mxGeometry>
        </mxCell>
        <mxCell id="7PiWUJBz4IiZLpDk-yet-57" value="&lt;font style=&quot;font-size: 18px&quot;&gt;Wessage&lt;/font&gt;" style="rounded=1;whiteSpace=wrap;html=1;fillColor=#dae8fc;strokeColor=#6c8ebf;" parent="1" vertex="1">
          <mxGeometry x="81.5" y="275" width="80" height="40" as="geometry" />
        </mxCell>
        <mxCell id="7PiWUJBz4IiZLpDk-yet-58" value="WPL Parser&lt;br style=&quot;font-size: 18px;&quot;&gt;" style="shape=parallelogram;perimeter=parallelogramPerimeter;whiteSpace=wrap;html=1;fillColor=none;fontSize=18;" parent="1" vertex="1">
          <mxGeometry x="490" y="710" width="135" height="60" as="geometry" />
        </mxCell>
        <mxCell id="7PiWUJBz4IiZLpDk-yet-63" value="&lt;font style=&quot;font-size: 18px&quot;&gt;WPLM&lt;/font&gt;" style="shape=cube;whiteSpace=wrap;html=1;boundedLbl=1;backgroundOutline=1;darkOpacity=0.05;darkOpacity2=0.1;fillColor=#ffe6cc;size=7;strokeColor=#d79b00;" parent="1" vertex="1">
          <mxGeometry x="525" y="520.5" width="64" height="37" as="geometry" />
        </mxCell>
        <mxCell id="7PiWUJBz4IiZLpDk-yet-64" value="&lt;font style=&quot;font-size: 18px&quot;&gt;WPLM&lt;/font&gt;" style="shape=cube;whiteSpace=wrap;html=1;boundedLbl=1;backgroundOutline=1;darkOpacity=0.05;darkOpacity2=0.1;fillColor=#ffe6cc;size=7;strokeColor=#d79b00;" parent="1" vertex="1">
          <mxGeometry x="647.5" y="448" width="64" height="37" as="geometry" />
        </mxCell>
        <mxCell id="_RV8kCxwsuGfQ2vhsxsz-1" value="&lt;span style=&quot;font-size: 18px&quot;&gt;Admin Page&lt;/span&gt;" style="rounded=1;whiteSpace=wrap;html=1;fillColor=none;" vertex="1" parent="1">
          <mxGeometry x="81.5" y="520" width="308.5" height="100" as="geometry" />
        </mxCell>
        <mxCell id="_RV8kCxwsuGfQ2vhsxsz-5" value="elasticsearch&lt;br&gt;Log System" style="whiteSpace=wrap;html=1;aspect=fixed;" vertex="1" parent="1">
          <mxGeometry x="110" y="710" width="80" height="80" as="geometry" />
        </mxCell>
        <mxCell id="_RV8kCxwsuGfQ2vhsxsz-6" value="" style="endArrow=classic;startArrow=classic;html=1;entryX=0;entryY=0.5;entryDx=0;entryDy=0;exitX=1;exitY=0.5;exitDx=0;exitDy=0;" edge="1" parent="1" source="_RV8kCxwsuGfQ2vhsxsz-5" target="7PiWUJBz4IiZLpDk-yet-29">
          <mxGeometry width="50" height="50" relative="1" as="geometry">
            <mxPoint x="271" y="759" as="sourcePoint" />
            <mxPoint x="321" y="709" as="targetPoint" />
          </mxGeometry>
        </mxCell>
      </root>
    </mxGraphModel>
  </diagram>
</mxfile>
